<?xml version="1.0" standalone="no"?>
<!DOCTYPE svg PUBLIC "-//W3C//DTD SVG 20010904//EN"
 "http://www.w3.org/TR/2001/REC-SVG-20010904/DTD/svg10.dtd">
<svg version="1.0" xmlns="http://www.w3.org/2000/svg"
 width="362.000000pt" height="362.000000pt" viewBox="0 0 362.000000 362.000000"
 preserveAspectRatio="xMidYMid meet">
<metadata>
Created by potrace 1.11, written by Peter Selinger 2001-2013
</metadata>
<g transform="translate(0.000000,362.000000) scale(0.100000,-0.100000)"
fill="#000000" stroke="none">
<path d="M1375 3612 c-94 -9 -259 -60 -277 -86 -4 -6 -8 -7 -8 -3 0 9 -93 -52
-98 -65 -2 -4 -8 -8 -14 -8 -6 0 -21 -11 -34 -25 -13 -14 -28 -25 -34 -25 -6
0 -9 -4 -6 -9 3 -5 0 -11 -7 -14 -7 -3 -26 -24 -42 -48 -17 -24 -38 -53 -47
-63 -10 -10 -15 -23 -12 -28 3 -4 0 -8 -5 -8 -6 0 -11 -7 -11 -15 0 -8 -5 -15
-11 -15 -5 0 -7 -4 -4 -10 3 -5 1 -10 -4 -10 -6 0 -11 -7 -11 -15 0 -20 -30
-34 -87 -39 -26 -3 -70 -8 -97 -11 -26 -3 -65 -8 -85 -10 -20 -3 -58 -7 -86
-11 -27 -3 -66 -7 -85 -9 -19 -2 -35 -4 -35 -5 0 -1 -61 -9 -125 -15 -25 -2
-46 -5 -47 -6 -2 -1 -13 -2 -25 -3 -13 0 -23 -5 -23 -11 0 -12 57 -148 65
-155 3 -3 6 -12 8 -20 4 -17 82 -202 112 -266 11 -22 27 -60 35 -84 8 -24 19
-48 24 -54 17 -21 16 -53 -4 -92 -11 -21 -23 -41 -27 -44 -5 -4 -59 -115 -63
-130 -1 -3 -4 -12 -8 -20 -21 -52 -41 -174 -40 -250 1 -56 13 -152 21 -165 4
-5 7 -14 7 -20 0 -21 49 -145 57 -145 4 0 8 -9 8 -20 0 -11 7 -23 15 -26 8 -4
12 -10 9 -15 -3 -5 0 -9 5 -9 6 0 11 -5 11 -10 0 -24 116 -140 189 -191 46
-31 48 -34 50 -85 2 -79 36 -199 81 -289 36 -74 52 -96 114 -165 142 -156 327
-235 561 -239 60 -1 110 -3 111 -4 7 -12 399 -534 404 -541 5 -4 101 116 215
268 l207 276 97 1 c53 0 110 3 126 5 350 53 605 321 640 674 3 35 7 65 8 65
20 7 103 69 140 104 206 192 283 504 191 773 -13 39 -45 109 -71 156 -27 47
-47 90 -45 96 2 5 62 147 133 314 72 167 127 307 124 310 -3 3 -13 6 -23 7
-26 3 -128 15 -212 25 -41 5 -100 12 -130 16 -30 3 -66 8 -80 9 -14 2 -50 6
-80 10 -30 3 -64 8 -75 10 -11 2 -32 4 -47 4 -24 1 -35 14 -82 94 -101 172
-244 292 -418 351 -79 26 -98 29 -225 32 -135 3 -212 -13 -328 -66 -33 -15
-62 -24 -63 -19 -2 5 -8 7 -13 3 -5 -3 -16 2 -25 10 -9 9 -20 14 -25 11 -5 -4
-9 -1 -9 5 0 6 -4 8 -10 5 -5 -3 -10 -2 -10 2 0 26 -234 65 -335 55z"/>
</g>
</svg>
